<?xml version="1.0" encoding="UTF-8"?>
<svg version="1.1" xmlns="http://www.w3.org/2000/svg" width="512" height="512">
<path d="M0 0 C1.0098999 0.01087646 2.0197998 0.02175293 3.06030273 0.03295898 C22.32597398 0.44491758 36.20660919 7.9186134 49.5625 21.375 C50.88606226 22.69000529 52.20968692 24.00494829 53.5342865 25.31890869 C59.2372055 30.97772164 64.90747035 36.66831536 70.5625 42.375 C74.71770962 40.75808552 77.39295093 37.71198841 80.40234375 34.5546875 C81.56008189 33.36673416 82.71830157 32.17924997 83.87695312 30.9921875 C85.67900113 29.13492761 87.47689123 27.27415351 89.26586914 25.40429688 C102.26922455 11.8481856 116.88410433 0.60648232 136.58984375 0.13671875 C157.36652464 -0.25429712 173.93643815 3.78561863 189.5625 18.375 C202.61829013 32.08569222 209.29413659 49.13782071 209.03295898 68.00952148 C207.98272731 92.4561143 194.32795195 107.76435258 177.69018555 124.39257812 C176.63112596 125.45463831 175.57226863 126.51690021 174.51359558 127.5793457 C171.66924355 130.43243976 168.82174384 133.28237107 165.97333884 136.13141823 C164.19123374 137.91423821 162.40984422 139.69777004 160.62870216 141.48155212 C154.4085466 147.71092103 148.18585252 153.93774077 141.96069336 160.16210938 C136.16484373 165.95735583 130.37462323 171.75818524 124.58695 177.56159639 C119.60432416 182.55728633 114.61786223 187.54912504 109.62838012 192.53796721 C106.65375218 195.51234029 103.68069526 198.48824309 100.71149254 201.46803284 C97.92594909 204.26324083 95.13566739 207.05362949 92.34164619 209.84036255 C91.31759393 210.86336768 90.2952486 211.88808478 89.27474213 212.91462708 C87.88214094 214.31493103 86.48276496 215.70848777 85.08305359 217.10168457 C84.30200099 217.88328194 83.52094839 218.6648793 82.71622753 219.47016144 C79.16828925 222.60809303 76.40123721 223.6765773 71.6875 223.75 C70.86507812 223.77835938 70.04265625 223.80671875 69.1953125 223.8359375 C63.60843909 222.8578202 59.51082642 218.57578071 55.60488892 214.69827271 C55.14396548 214.24329151 54.68304204 213.78831032 54.20815122 213.31954181 C52.6791215 211.80772692 51.15719764 210.2889651 49.63525391 208.77001953 C48.53444208 207.6784757 47.43324042 206.58732491 46.3316803 205.49653625 C43.34925083 202.54025473 40.3734322 199.5774075 37.39960146 196.61247873 C35.5366852 194.7554427 33.67260845 192.89957923 31.80817795 191.04406357 C25.96125753 185.22447236 20.11834515 179.40090102 14.28120768 173.57149708 C7.56930685 166.86854016 0.84457078 160.17882783 -5.89181268 153.50047791 C-11.11460573 148.32110474 -16.32563041 143.13007757 -21.52809012 137.93028152 C-24.62754625 134.83290903 -27.73154067 131.74046012 -30.84791183 128.66009903 C-33.78507572 125.75621886 -36.70718141 122.83794868 -39.61903572 119.90869713 C-40.68117966 118.84502922 -41.74832624 117.78632561 -42.82118416 116.73346519 C-56.25260489 103.53753791 -65.25079461 87.38985785 -65.72998047 68.20947266 C-65.89920809 49.00420195 -59.78436073 32.43803375 -46.4375 18.375 C-33.74368757 6.17519381 -17.51350061 -0.25783315 0 0 Z " fill="#24442E" transform="translate(184.4375,-0.375)"/>
<path d="M0 0 C2.04921514 1.32252335 4.045348 2.72884094 6 4.1875 C23.61025123 16.8218139 44.87884249 22.18011556 66.375 19.25 C81.66358424 16.6327099 96.28203299 11.27876622 107.62109375 0.40625 C111.10189343 -1.65136557 113.13975927 -0.96402582 117 0 C131.17039931 5.5680954 140.71090151 13.54667251 147.11925507 27.42370129 C150.16359039 35.00465144 150.57007974 41.80310366 150.51757812 49.91333008 C150.52301165 51.27466577 150.53014116 52.63599557 150.53881836 53.99731445 C150.55690027 57.66032175 150.55005009 61.32287351 150.53730202 64.98588777 C150.52710541 68.83343282 150.53658508 72.68094142 150.54284668 76.52848816 C150.55009947 82.98154644 150.54059337 89.43442087 150.52148438 95.88745117 C150.49967383 103.33865487 150.50680657 110.78942141 150.52879 118.24061471 C150.54695674 124.65620176 150.54949752 131.07165749 150.53903532 137.48726195 C150.53281327 141.31144899 150.53192998 145.13543058 150.54518127 148.95960426 C150.55675959 152.55087099 150.54867886 156.14157441 150.52560425 159.73278046 C150.51781993 161.67336255 150.52965288 163.61399247 150.54211426 165.55455017 C150.43672446 176.41111126 150.43672446 176.41111126 146 181 C142.41970401 183.52018703 140.01806808 184.37392382 135.65324402 184.36076355 C134.06528015 184.36694954 134.06528015 184.36694954 132.44523621 184.3732605 C131.29437027 184.36247467 130.14350433 184.35168884 128.95776367 184.34057617 C127.12787399 184.34123329 127.12787399 184.34123329 125.26101685 184.34190369 C121.92442289 184.34017417 118.58838867 184.32514946 115.25189376 184.30418181 C111.76188421 184.28540297 108.27186686 184.28366363 104.78181458 184.28010559 C98.17683152 184.27078865 91.57199778 184.24617971 84.96708041 184.21605712 C77.44596784 184.18250212 69.92484807 184.16602435 62.40367925 184.15097082 C46.93569975 184.11962976 31.46786915 184.06687619 16 184 C16.14118854 183.37993891 16.28237707 182.75987782 16.42784405 182.12102699 C17.65945347 176.4121694 18.29409985 171.05542964 18.2746582 165.22412109 C18.27976913 164.40955444 18.28488007 163.59498779 18.29014587 162.7557373 C18.30390762 160.09489336 18.30309454 157.43431255 18.30078125 154.7734375 C18.30467706 152.89791775 18.30901352 151.02239887 18.31376648 149.1468811 C18.32120109 145.22500749 18.32095863 141.30322392 18.31567383 137.38134766 C18.30989935 132.39908756 18.32677478 127.41720166 18.3500185 122.43500328 C18.36488291 118.56208199 18.36561016 114.68924803 18.36250877 110.81630325 C18.36301617 108.98182055 18.36814229 107.14733219 18.37832069 105.31287766 C18.50177213 79.94343317 12.99563665 57.90926128 -5 39 C-12.59513752 32.33032042 -21.01721285 27.50588194 -30 23 C-28.82723857 16.4302588 -26.81177113 11.09725509 -21.5 6.8125 C-15.51107807 2.72250453 -7.32845882 -2.5985826 0 0 Z " fill="#24452E" transform="translate(362,328)"/>
<path d="M0 0 C1.6481406 1.37905642 3.28859331 2.7691025 4.875 4.21875 C19.88588253 16.80140154 41.66764759 22.29352723 61 21 C78.55187003 19.02574587 95.58361423 13.41558602 108.734375 1.22265625 C112.14063503 -0.61554959 114.29526984 0.10331372 118 1 C121.5703125 2.41796875 121.5703125 2.41796875 125.125 4.1875 C126.30320313 4.75855469 127.48140625 5.32960938 128.6953125 5.91796875 C134.57891418 9.6247769 137.81897708 14.45693123 140 21 C139.9140625 23.03515625 139.9140625 23.03515625 139 25 C136.59375 26.45703125 136.59375 26.45703125 133.5 27.8125 C127.64112357 30.56429095 122.93248162 33.8533072 118 38 C117.19175781 38.60972656 116.38351563 39.21945312 115.55078125 39.84765625 C101.16337537 51.98771848 94.24627465 70.83872983 92 89 C91.86215873 91.84420938 91.85304587 94.68332765 91.85473633 97.53051758 C91.85137772 98.35428391 91.8480191 99.17805023 91.84455872 100.02677917 C91.83510986 102.73271215 91.83310865 105.43858284 91.83203125 108.14453125 C91.82881441 110.0387118 91.82545001 111.9328921 91.82194519 113.82707214 C91.81596905 117.79202856 91.81410373 121.75696323 91.81469727 125.72192383 C91.81479879 130.78212336 91.8011499 135.84218227 91.78392506 140.90234852 C91.77276187 144.8136203 91.77077938 148.72485856 91.77130699 152.63614464 C91.77013326 154.50070365 91.76574584 156.36526371 91.75797462 158.2298069 C91.74808734 160.84706876 91.75108691 163.4640313 91.75708008 166.08129883 C91.75146057 166.83851227 91.74584106 167.59572571 91.74005127 168.37588501 C91.77302942 174.09369419 92.72582318 179.4336373 94 185 C77.80568718 185.09349076 61.61146207 185.1640023 45.4169445 185.20724869 C37.89733731 185.22786354 30.37789792 185.25596332 22.85839844 185.30175781 C16.30348126 185.34165883 9.74868562 185.36744065 3.19365036 185.37635398 C-0.27642927 185.38156329 -3.74616123 185.39378394 -7.2161293 185.42292023 C-11.09223132 185.45520193 -14.96799493 185.4559573 -18.84423828 185.45410156 C-19.99150894 185.46848267 -21.1387796 185.48286377 -22.32081604 185.49768066 C-28.34041622 185.46645502 -32.40112095 185.32677211 -37 181 C-39.65531833 177.28013049 -40.37669682 174.74355585 -40.38768005 170.19577026 C-40.39758469 169.03522629 -40.40748932 167.87468231 -40.41769409 166.67897034 C-40.41319244 165.41447556 -40.4086908 164.14998077 -40.40405273 162.84716797 C-40.40975853 161.49483171 -40.41672361 160.14250027 -40.42485046 158.79017639 C-40.44278285 155.12242596 -40.44161234 151.45491479 -40.43590808 147.78713369 C-40.43281355 144.71852184 -40.43891225 141.64995578 -40.44494683 138.58135045 C-40.45899331 131.33414272 -40.45743232 124.08705285 -40.44604492 116.83984375 C-40.4345884 109.38433351 -40.44859726 101.92918404 -40.4754414 94.47372139 C-40.4976692 88.05818947 -40.50421917 81.64277019 -40.49836498 75.22720253 C-40.49500804 71.40219311 -40.49732456 67.57741436 -40.51461601 63.75243759 C-40.53019435 60.14894817 -40.52601076 56.54598758 -40.50731087 52.94251823 C-40.5019238 51.00640389 -40.5160597 49.0702652 -40.53100586 47.13420105 C-40.42506855 34.45009268 -36.32848681 23.23086016 -27.91796875 13.62109375 C-21.53479733 7.36495062 -9.55845666 -1.46540799 0 0 Z " fill="#24452E" transform="translate(40,327)"/>
<path d="M0 0 C2.00715707 1.30269526 3.96131062 2.68851561 5.875 4.125 C23.79476249 17.04419935 44.94816333 22.28572608 66.91796875 19.50390625 C82.35168466 16.67305888 97.13745583 10.87670852 108.83203125 0.22265625 C111.94997856 -1.53575367 113.5941268 -0.94724533 117 0 C129.92351884 5.14490798 139.34050893 12.34375457 146.52734375 24.421875 C151.35674415 36.15590886 151.44763915 47.71079771 151.3984375 60.1796875 C151.4004633 62.00521968 151.40337893 63.83075107 151.40713501 65.65628052 C151.41152786 69.45680551 151.40522173 73.25711721 151.39111328 77.05761719 C151.37394958 81.91627226 151.38392707 86.77443265 151.40183067 91.63306999 C151.41268861 95.39240223 151.40921421 99.15161771 151.4014473 102.91095352 C151.39945465 104.70262843 151.4018715 106.49431413 151.40888596 108.28597641 C151.41654197 110.78842948 151.40484207 113.29008642 151.38818359 115.79248047 C151.39425629 116.52300125 151.40032898 117.25352203 151.40658569 118.00617981 C151.34378251 123.12288265 150.32881477 126.53643474 148 131 C143.27203937 135.38201229 140.6373419 136.12555405 134.27008057 136.14717102 C133.57023411 136.15084771 132.87038764 136.1545244 132.14933372 136.1583125 C129.79258234 136.16936928 127.43587502 136.17319655 125.07910156 136.17700195 C123.3939805 136.18326512 121.70886083 136.18991179 120.02374268 136.19691467 C115.43683248 136.21433852 110.84993273 136.22488031 106.26299763 136.2331202 C103.39818706 136.23826766 100.53337975 136.24434352 97.66857147 136.25063133 C88.7080551 136.26968769 79.74754699 136.28391761 70.78701425 136.2922433 C60.43850502 136.30201691 50.09020962 136.3283378 39.74177575 136.36874419 C31.7468015 136.3988915 23.75188858 136.41371088 15.75685859 136.41702431 C10.9801255 136.41937648 6.20362074 136.42835838 1.42694855 136.45348549 C-3.06777656 136.47674689 -7.56212272 136.48100728 -12.0568924 136.47072411 C-13.70564534 136.47022815 -15.35441681 136.47656609 -17.00311279 136.49028015 C-19.25657805 136.50797424 -21.50867967 136.50090654 -23.762146 136.48774719 C-25.02240475 136.49013555 -26.2826635 136.4925239 -27.58111191 136.49498463 C-32.44396678 135.79094333 -35.54627293 133.60411263 -38.8125 130 C-41.40440656 125.63468369 -41.1536652 121.08519283 -41.16113281 116.13305664 C-41.16609772 115.34380798 -41.17106262 114.55455933 -41.17617798 113.74139404 C-41.19077576 111.13097251 -41.19760055 108.5206119 -41.203125 105.91015625 C-41.20888203 104.08613586 -41.21463969 102.26211548 -41.22039795 100.43809509 C-41.23090367 96.60903645 -41.23674795 92.77999876 -41.24023438 88.95092773 C-41.24569315 84.07583739 -41.26966656 79.20103001 -41.29820633 74.32602787 C-41.31696271 70.55359632 -41.32204535 66.78123085 -41.32357025 63.00875664 C-41.32657225 61.2136526 -41.33451644 59.41854902 -41.34775543 57.62349129 C-41.46473878 40.53015954 -39.92442074 25.31657413 -27.6875 12.125 C-21.24358937 6.20006203 -9.05506219 -2.97310138 0 0 Z " fill="#24442E" transform="translate(201,376)"/>
<path d="M0 0 C0.91845703 0.67482422 0.91845703 0.67482422 1.85546875 1.36328125 C11.96881862 9.28875411 18.36717171 22.0310909 20.71875 34.53515625 C22.60484433 51.0646774 18.76556936 66.10886953 9.1171875 79.640625 C-1.49162985 92.2681242 -15.98739197 98.58100172 -32.16015625 100.21875 C-47.29161229 100.89754429 -60.98795848 95.39138908 -72.375 85.6875 C-83.25830499 75.24517171 -89.96058494 62.26566787 -90.29272461 47.109375 C-90.41855573 30.50588159 -86.38322756 16.48197011 -74.6875 4.125 C-54.00008764 -15.26506616 -22.52978021 -17.5632956 0 0 Z " fill="#24442E" transform="translate(130,220)"/>
<path d="M0 0 C10.96666362 11.48690383 15.25124757 25.73359872 15.09765625 41.27832031 C14.90894492 47.51365721 14.07015426 53.0783578 11.74609375 58.90625 C11.36710937 59.86660156 10.988125 60.82695312 10.59765625 61.81640625 C4.31140977 75.89687163 -6.18943201 85.06075333 -20.19140625 91.15625 C-34.47257486 96.52847644 -48.68706966 96.00545385 -62.87890625 90.5 C-76.39679899 84.21536565 -86.92334995 74.71277582 -92.53125 60.71875 C-97.67811282 45.77269996 -98.29527386 30.21598475 -91.77734375 15.59375 C-84.61140881 1.4582071 -74.44983943 -8.33528736 -59.578125 -14.0859375 C-37.81246474 -20.68469231 -16.63014231 -15.44845109 0 0 Z " fill="#24442E" transform="translate(457.25390625,225.09375)"/>
<path d="M0 0 C12.16366698 9.37921309 19.65395681 21.51379791 22.375 36.625 C24.10900837 51.01258295 21.36386324 66.27807192 12.5 78 C9.8210554 81.16969954 7.04870158 84.17995104 4 87 C3.51273437 87.48082031 3.02546875 87.96164062 2.5234375 88.45703125 C-7.86395398 98.1798266 -22.82926055 101.6956352 -36.75 101.27734375 C-51.57629722 100.01211887 -64.82692728 93.99090798 -75 83 C-84.51220267 71.62001664 -89.64663835 57.5899295 -89.24609375 42.72265625 C-87.63913881 24.94412301 -80.27108943 11.40539715 -66.7109375 0.08984375 C-46.96210835 -13.94977843 -19.6535868 -14.29351767 0 0 Z " fill="#24442E" transform="translate(289,267)"/>
<path d="M0 0 C0.97042236 0.49322754 1.94084473 0.98645508 2.94067383 1.49462891 C3.94912354 1.99430176 4.95757324 2.49397461 5.99658203 3.00878906 C8.96565256 4.48775984 11.9222683 5.98956244 14.87817383 7.49462891 C16.44308188 8.27366881 18.00816604 9.05235514 19.57348633 9.83056641 C31.60548551 15.94925228 31.60548551 15.94925228 34.87817383 22.49462891 C35.40757404 27.80598843 35.54181012 32.16735632 33.12817383 36.99462891 C29.20288307 41.35606308 26.30830372 43.23396693 20.38208008 43.86962891 C14.5849383 43.78497979 9.88641495 41.07209428 4.81567383 38.49462891 C3.30191162 37.74403198 3.30191162 37.74403198 1.75756836 36.97827148 C-1.21025082 35.49909299 -4.16592107 33.99743176 -7.12182617 32.49462891 C-8.67472025 31.72670744 -10.22805469 30.95967532 -11.78198242 30.19384766 C-13.10472453 29.5255016 -14.42643337 28.85510439 -15.74682617 28.18212891 C-16.8734668 27.60849609 -18.00010742 27.03486328 -19.16088867 26.44384766 C-23.20469831 23.78176189 -26.28271886 20.87882323 -27.93432617 16.18603516 C-28.40480293 10.84416367 -27.95134066 7.24091128 -25.12182617 2.49462891 C-17.31343964 -5.71800652 -9.37553313 -4.56229145 0 0 Z " fill="#24452E" transform="translate(461.121826171875,115.50537109375)"/>
<path d="M0 0 C4.07714407 2.71809604 7.04329194 5.28423176 8.44921875 10.01953125 C9.29900371 15.38322774 8.6460621 19.12192808 5.8125 23.875 C1.63695796 27.73974864 -2.57358617 30.3485469 -7.66796875 32.828125 C-8.36263748 33.17381531 -9.05730621 33.51950562 -9.77302551 33.87567139 C-11.97002459 34.96636284 -14.17245037 36.04556965 -16.375 37.125 C-17.8642781 37.86388675 -19.35321382 38.603464 -20.84179688 39.34375 C-22.26271157 40.04749977 -23.6839252 40.75064635 -25.10546875 41.453125 C-26.10395088 41.94682587 -26.10395088 41.94682587 -27.12260437 42.45050049 C-32.60961337 45.13730695 -37.0384399 46.51674251 -43.1875 45.875 C-48.53490414 43.92114079 -51.64368143 40.96263713 -54.1875 35.875 C-54.70072348 30.72593815 -54.80725846 26.26945654 -52.6875 21.5 C-46.52741512 15.03191088 -37.70693735 11.4924586 -29.78588867 7.57128906 C-27.85945418 6.61730157 -25.93637848 5.65678782 -24.01367188 4.6953125 C-8.53590581 -3.01267264 -8.53590581 -3.01267264 0 0 Z " fill="#24452E" transform="translate(70.1875,113.125)"/>
<path d="M0 0 C4.48347555 2.33323728 6.80325359 4.36242425 9 9 C9.79708574 15.53610309 9.83748112 20.49744051 6 26 C4.02050781 27.54370117 4.02050781 27.54370117 1.703125 28.85546875 C0.81560547 29.35868652 -0.07191406 29.8619043 -0.98632812 30.38037109 C-6.08398768 33.11999144 -11.21141389 35.79169329 -16.38769531 38.37915039 C-18.26556385 39.32030029 -20.13663043 40.27415426 -22.0078125 41.22851562 C-23.21835797 41.83671842 -24.42928225 42.44416794 -25.640625 43.05078125 C-26.71860352 43.59387939 -27.79658203 44.13697754 -28.90722656 44.6965332 C-35.06811675 47.2930751 -39.85503039 47.32340793 -46 45 C-50.2918619 42.52025757 -52.06327359 39.74547892 -53.55859375 35.1484375 C-54.54687825 30.33820321 -53.7494359 26.45070754 -51.48046875 22.05859375 C-48.27085536 18.10091299 -44.89925444 16.39217132 -40.375 14.1875 C-39.53831787 13.76807129 -38.70163574 13.34864258 -37.83959961 12.91650391 C-36.09568706 12.04282909 -34.34914259 11.17438937 -32.60009766 10.31103516 C-30.08989199 9.04532582 -27.62802156 7.71564999 -25.16796875 6.35546875 C-9.3027806 -2.28540752 -9.3027806 -2.28540752 0 0 Z " fill="#24442E" transform="translate(487,0)"/>
<path d="M0 0 C5.59492784 1.92522649 10.83463085 4.67746278 16.06640625 7.41577148 C18.51007947 8.69276725 20.9711135 9.92965017 23.4375 11.16210938 C25.01157185 11.96388196 26.5845314 12.76784285 28.15625 13.57421875 C28.88541626 13.94214035 29.61458252 14.31006195 30.36584473 14.68913269 C35.42454078 17.36050713 38.39616367 20.2505663 41.3125 25.25 C42.67702027 30.70808106 41.81724887 35.42387718 39.25 40.375 C36.03720492 44.12326092 33.50176767 45.59567794 28.75 46.875 C19.53646387 47.18211787 10.83623298 41.68230205 2.77832031 37.63964844 C0.74586796 36.62293298 -1.29456351 35.62365778 -3.3359375 34.625 C-4.64635207 33.97239473 -5.95626613 33.3187833 -7.265625 32.6640625 C-8.43899414 32.08092285 -9.61236328 31.4977832 -10.82128906 30.89697266 C-15.26832304 28.24309754 -19.2422538 25.00281609 -21 20 C-21.6842501 14.73286554 -21.63405953 10.31508642 -19.3125 5.5 C-13.66164174 -0.60903595 -7.97724841 -1.40944173 0 0 Z " fill="#24442E" transform="translate(37,0)"/>
</svg>
