<?xml version="1.0" encoding="UTF-8"?>
<svg version="1.1" xmlns="http://www.w3.org/2000/svg" width="512" height="512">
<path d="M0 0 C0.9605127 0.39541992 1.92102539 0.79083984 2.91064453 1.19824219 C13.04506171 5.52145233 23.5424265 10.10735493 28 20.875 C28.92424707 27.68524156 28.69849112 33.48215172 24.56640625 39.12109375 C20.53985635 43.62962469 16.78461202 47.49904408 10.53356934 48.12001038 C2.29818874 48.344221 -4.18776189 46.58036656 -11.84375 43.68359375 C-13.01587036 43.25949722 -14.18799072 42.8354007 -15.39562988 42.39845276 C-19.10393591 41.05441606 -22.80232996 39.68549997 -26.5 38.3125 C-30.22646106 36.93710103 -33.95621862 35.57108493 -37.69006348 34.21583557 C-40.00468424 33.37475674 -42.31534618 32.5226849 -44.62145996 31.65855408 C-45.66354614 31.27808426 -46.70563232 30.89761444 -47.77929688 30.50561523 C-48.69352417 30.16586166 -49.60775146 29.82610809 -50.54968262 29.47605896 C-53.15494438 28.83699239 -54.50557056 28.97793051 -57 29.875 C-58.01111093 32.92413228 -58.01111093 32.92413228 -57 35.875 C-54.71889056 36.94683034 -54.71889056 36.94683034 -51.88867188 37.92211914 C-50.25061584 38.51767357 -50.25061584 38.51767357 -48.57946777 39.1252594 C-47.38793091 39.54927536 -46.19639404 39.97329132 -44.96875 40.41015625 C-43.13842224 41.06823524 -43.13842224 41.06823524 -41.27111816 41.73960876 C-38.68019602 42.6699482 -36.08736231 43.59470629 -33.49316406 44.51586914 C-30.18842947 45.69001263 -26.88944112 46.87942839 -23.59185028 48.07346439 C-20.42911032 49.21578998 -17.2611799 50.3434001 -14.09375 51.47265625 C-12.91840698 51.89869644 -11.74306396 52.32473663 -10.53210449 52.76368713 C0.28518403 56.57728349 9.00123488 58.02011284 20 53.875 C25.85366046 50.55316666 30.39033019 46.17759841 33.359375 40.0859375 C36.71772614 35.09560431 42.68561538 33.32138621 48 31 C49.24424579 30.44127902 50.48779976 29.88101526 51.73071289 29.31933594 C55.10611169 27.79966209 58.49095275 26.30228159 61.87872314 24.8104248 C65.44246725 23.23891158 69.00013438 21.65374635 72.55859375 20.0703125 C77.01823141 18.08697925 81.47884938 16.10595332 85.94311523 14.13305664 C99.16010291 8.28610357 112.29438876 2.26504433 125.40991211 -3.80566406 C126.1656955 -4.15490433 126.92147888 -4.50414459 127.70016479 -4.8639679 C129.11346556 -5.51726787 130.52612418 -6.17195949 131.9380188 -6.82829285 C139.40072499 -10.2780004 147.45145781 -12.1426517 155.4921875 -9.21875 C159.8283252 -6.66615573 162.96417156 -3.79044017 165 0.875 C165.8256926 7.68933661 165.66560697 13.91838867 162 19.875 C156.83203428 25.72952555 150.99627834 30.31498025 144.5625 34.6875 C143.68924072 35.28933105 142.81598145 35.89116211 141.91625977 36.51123047 C134.41399911 41.65528756 126.81644536 46.64487979 119.13623047 51.51855469 C116.9528892 52.90491401 114.77513862 54.29977251 112.59765625 55.6953125 C93.77916467 67.71330197 74.6647231 79.29161166 55 89.875 C54.11634766 90.35565918 53.23269531 90.83631836 52.32226562 91.33154297 C24.39098835 106.48421283 0.13618049 117.92188679 -31.58837891 108.89453125 C-58.55966822 100.83441216 -84.51961183 91.01442457 -109.99853516 79.03515625 C-131.1931231 69.08158427 -148.86792465 66.19494391 -172 70.875 C-173.35291663 56.09874862 -174.51137924 41.32047687 -175.43261719 26.51098633 C-175.6264813 23.41383495 -175.82872131 20.31729859 -176.03125 17.22070312 C-176.74079008 6.08610103 -177.20190145 -4.96637595 -177 -16.125 C-167.92700637 -18.54394902 -158.84208976 -20.90800231 -149.73339844 -23.18896484 C-147.58109412 -23.72858914 -145.42995062 -24.27299162 -143.28222656 -24.83056641 C-101.04520287 -35.59960887 -38.76482685 -15.9843746 0 0 Z " fill="#24452E" transform="translate(296,342.125)"/>
<path d="M0 0 C42.41350384 3.09821565 93.22085079 13.97855262 128 40 C128.94230469 40.69738281 129.88460937 41.39476562 130.85546875 42.11328125 C145.54832735 53.52304593 155.62541376 68.83698146 158.6015625 87.29296875 C160.58847496 105.77904644 157.05275759 122.04142753 150 139 C149.34 139 148.68 139 148 139 C146.62367695 137.32118837 145.32558818 135.57808258 144.0625 133.8125 C135.63924852 122.26170079 126.23306847 110.92065982 115.9375 101 C114 99 114 99 114 97 C113.45085937 96.78214844 112.90171875 96.56429687 112.3359375 96.33984375 C109.24530882 94.56712529 107.04867207 92.12589864 104.625 89.5625 C92.39440847 77.02325598 77.52597426 66.13710699 62 58 C59.15981613 58.11310085 59.15981613 58.11310085 57 59 C56.68511438 61.38242778 56.68511438 61.38242778 57 64 C58.55713959 65.63906888 58.55713959 65.63906888 60.76953125 66.796875 C61.57044189 67.27576172 62.37135254 67.75464844 63.1965332 68.24804688 C64.05980225 68.74369141 64.92307129 69.23933594 65.8125 69.75 C67.57616796 70.81232917 69.3366101 71.8800326 71.09375 72.953125 C71.94582031 73.47326172 72.79789062 73.99339844 73.67578125 74.52929688 C78.49470838 77.57858438 82.71893369 81.25406698 87 85 C88.09173109 85.91257695 89.18560947 86.8225892 90.28125 87.73046875 C96.58809511 92.98940187 102.62601231 98.44634345 108.4375 104.25 C109.26954956 105.08084106 109.26954956 105.08084106 110.1184082 105.9284668 C116.85233238 112.7532944 122.97641502 120.09964418 129.0625 127.5 C129.64837891 128.20769531 130.23425781 128.91539062 130.83789062 129.64453125 C133.7464913 133.17617292 136.62185517 136.73443113 139.43359375 140.34375 C139.92786865 140.97474609 140.42214355 141.60574219 140.93139648 142.25585938 C142 144 142 144 142 147 C130.43099462 152.34628279 117.82329314 156.4115506 105 157 C104.27425781 157.0515625 103.54851562 157.103125 102.80078125 157.15625 C85.22251936 157.85356948 69.60816632 151.81344022 56 141 C55.15824219 140.35933594 54.31648438 139.71867188 53.44921875 139.05859375 C17.5758744 108.90667593 4.95456433 43.89850544 0 0 Z " fill="#24442E" transform="translate(120,54)"/>
<path d="M0 0 C0.92880981 -0.00006042 1.85761963 -0.00012085 2.8145752 -0.00018311 C22.29813994 0.0178549 41.56589912 0.95104118 60.8125 4.1875 C59.40523588 8.77336068 57.55086881 12.9884257 55.375 17.25 C55.02646973 17.93626465 54.67793945 18.6225293 54.31884766 19.32958984 C53.55642666 20.82616939 52.79168505 22.32156847 52.02490234 23.81591797 C50.78177536 26.24760052 49.5569922 28.68802992 48.33203125 31.12890625 C39.3896979 48.76195974 29.12780366 65.69094373 16.8125 81.1875 C16.18472656 82.00605469 15.55695313 82.82460937 14.91015625 83.66796875 C1.10169489 101.42977283 -16.42982528 120.71298978 -39.1875 126.1875 C-40.25677734 126.45820313 -40.25677734 126.45820313 -41.34765625 126.734375 C-59.90718799 129.69573082 -76.49235168 125.10348458 -93.1875 117.1875 C-94.39599609 116.70796875 -94.39599609 116.70796875 -95.62890625 116.21875 C-101.54850835 113.4330549 -103.24557632 108.33937754 -105.46289062 102.53149414 C-106.49799461 99.62700693 -107.1875 97.29089078 -107.1875 94.1875 C-105.62817383 92.79980469 -105.62817383 92.79980469 -103.39453125 91.359375 C-102.13032349 90.54194824 -102.13032349 90.54194824 -100.84057617 89.70800781 C-99.90318604 89.12374023 -98.9657959 88.53947266 -98 87.9375 C-97.02329346 87.32487305 -96.04658691 86.71224609 -95.0402832 86.08105469 C-68.4980294 69.73906882 -40.40804999 57.00480315 -10.1875 49.1875 C-9.43792843 45.71602158 -9.43792843 45.71602158 -9.1875 42.1875 C-41.52127344 43.24762372 -76.98045929 64.83554483 -103.10473633 81.97338867 C-105.39234892 83.30691316 -107.71066009 84.26000135 -110.1875 85.1875 C-109.89875 84.09179688 -109.61 82.99609375 -109.3125 81.8671875 C-106.37155392 69.64285234 -105.8745455 58.28448512 -106.77539062 45.72216797 C-107.05783643 38.77565184 -106.6698917 34.85483661 -101.94921875 29.546875 C-100.39829992 28.05504641 -98.81123321 26.59972952 -97.1875 25.1875 C-96.39899658 24.45684326 -95.61049316 23.72618652 -94.7980957 22.97338867 C-78.20599508 7.95125199 -53.65048846 3.61612373 -32.1875 1.1875 C-30.91990845 1.04284302 -30.91990845 1.04284302 -29.62670898 0.89526367 C-19.77070504 -0.07708917 -9.89345514 -0.00985099 0 0 Z " fill="#24442E" transform="translate(391.1875,97.8125)"/>
<path d="M0 0 C10.77025325 5.9912386 21.04217603 7.64633664 33.24609375 7.15844727 C46.19634575 6.68637606 56.81525514 7.62225775 67.12109375 16.09594727 C75.01134323 23.81085787 76.32810731 32.18983351 76.62036133 42.69018555 C76.8722037 48.5508895 78.29291496 53.17274863 80.8671875 58.48266602 C82.94333289 62.80958585 84.12109375 66.27044203 84.12109375 71.09594727 C76.51663602 74.51043107 68.9101892 77.92041337 61.30151367 81.32548523 C57.26505732 83.1328213 53.23181564 84.94707915 49.20143127 86.76791382 C47.3256766 87.61457694 45.44883573 88.45877708 43.5715332 89.30200195 C41.21785306 90.35951068 38.86606911 91.42125154 36.51635742 92.48754883 C35.45521729 92.96289062 34.39407715 93.43823242 33.30078125 93.92797852 C32.36991699 94.34797119 31.43905273 94.76796387 30.47998047 95.20068359 C28.12109375 96.09594727 28.12109375 96.09594727 25.12109375 96.09594727 C24.91484375 94.81719727 24.70859375 93.53844727 24.49609375 92.22094727 C22.46675891 83.38083109 18.04937339 76.74848297 10.38671875 71.87329102 C-26.20394447 51.95851618 -68.63701313 43.01779826 -109.59326172 37.74389648 C-110.32261429 37.64750885 -111.05196686 37.55112122 -111.80342102 37.45181274 C-113.7913513 37.1902199 -115.78053175 36.93817835 -117.76977539 36.68676758 C-120.87890625 36.09594727 -120.87890625 36.09594727 -123.87890625 34.09594727 C-125.38939432 25.37321888 -123.23779154 18.50130571 -118.69921875 11.19750977 C-114.02420631 4.86272959 -105.61579472 0.39991723 -97.87890625 -0.90405273 C-89.57004434 -1.41116637 -81.81467519 -1.0991094 -73.69140625 0.65844727 C-60.50574732 3.42094409 -50.19592702 0.62488617 -37.87890625 -3.90405273 C-24.39094764 -8.56352934 -12.35956148 -7.00209027 0 0 Z " fill="#24442E" transform="translate(307.87890625,271.904052734375)"/>
<path d="M0 0 C11.0393256 -0.59305278 11.0393256 -0.59305278 15.21142578 1.90039062 C18.65646219 5.34542703 19.675972 8.17760615 20.04122925 12.99162292 C20.15529712 14.4204491 20.15529712 14.4204491 20.27166939 15.87814045 C20.38082585 17.41318871 20.38082585 17.41318871 20.4921875 18.97924805 C20.57438978 20.048408 20.65659206 21.11756796 20.74128532 22.2191267 C20.99198376 25.52887056 21.22916219 28.83930565 21.46142578 32.15039062 C21.53002052 33.12015965 21.59861526 34.08992867 21.66928864 35.08908463 C22.13065301 41.68720934 22.55393736 48.28751068 22.96923828 54.88867188 C23.10079422 56.9579485 23.23245969 59.02721817 23.36422729 61.09648132 C23.63636002 65.37924329 23.90669997 69.66211364 24.17578125 73.94506836 C24.51917242 79.40732644 24.86795847 84.8692255 25.21814156 90.33105183 C25.48995284 94.58187224 25.75854059 98.83289184 26.02621078 103.08397484 C26.15350881 105.0984904 26.28187478 107.11293879 26.41138077 109.12731361 C28.17781373 136.66454895 28.17781373 136.66454895 25.77392578 141.65039062 C21.69503103 146.06000657 18.22707187 147.5020147 12.27001953 147.88085938 C11.07699219 147.96142578 9.88396484 148.04199219 8.65478516 148.125 C7.41535156 148.19525391 6.17591797 148.26550781 4.89892578 148.33789062 C3.6865625 148.41974609 2.47419922 148.50160156 1.22509766 148.5859375 C-19.77101511 149.92563585 -19.77101511 149.92563585 -25.10107422 147.58789062 C-30.79541915 141.89354569 -31.09269708 135.19632267 -31.52172852 127.54370117 C-31.59044159 126.49869949 -31.65915466 125.45369781 -31.72994995 124.37702942 C-31.95328956 120.93105137 -32.15834252 117.48425562 -32.36279297 114.03710938 C-32.51449802 111.62394833 -32.66716753 109.21084775 -32.820755 106.79780579 C-33.14021541 101.73699211 -33.4512018 96.67575434 -33.75561523 91.61401367 C-34.14320501 85.17276109 -34.54664916 78.73263305 -34.95595074 72.29272747 C-35.27206944 67.30398557 -35.58209197 62.3148798 -35.89011574 57.3256321 C-36.03676772 54.95405095 -36.18466367 52.58254634 -36.33389854 50.21112633 C-36.79336577 42.85993274 -37.21050082 35.50869265 -37.53857422 28.15039062 C-37.57939243 27.2432645 -37.62021065 26.33613838 -37.66226578 25.40152359 C-37.76107741 22.90984836 -37.82700901 20.42006868 -37.87768555 17.92700195 C-37.90583941 17.21668414 -37.93399328 16.50636633 -37.9630003 15.77452374 C-38.00379782 10.77659275 -36.64873912 8.00321256 -33.53857422 4.15039062 C-30.44206855 1.95920227 -27.46838432 1.78571706 -23.73388672 1.51757812 C-22.59910889 1.43330566 -21.46433105 1.3490332 -20.29516602 1.26220703 C-18.49752808 1.14498291 -18.49752808 1.14498291 -16.66357422 1.02539062 C-14.83596558 0.90236572 -14.83596558 0.90236572 -12.97143555 0.77685547 C-8.64867088 0.49796743 -4.32412082 0.25617027 0 0 Z " fill="#24442E" transform="translate(88.53857421875,298.849609375)"/>
<path d="M0 0 C3.44453529 1.72226764 4.05157042 5.79081567 5.3125 9.25 C5.62010254 10.08813232 5.92770508 10.92626465 6.24462891 11.78979492 C11.40856743 26.32965199 15.20889473 41.54178996 15 57 C9.72 57 4.44 57 -1 57 C-1.29132813 55.33195312 -1.58265625 53.66390625 -1.8828125 51.9453125 C-3.94515663 40.50488222 -6.09295923 29.36431001 -10.11962891 18.43408203 C-11.37777279 15.01652375 -12 12.7054896 -12 9 C-9.375 7.0625 -9.375 7.0625 -6 5 C-3.94842896 3.38739123 -1.98198342 1.69884293 0 0 Z " fill="#24442E" transform="translate(276,200)"/>
</svg>
